<svg width="82" height="84" viewBox="0 0 82 84" fill="none" xmlns="http://www.w3.org/2000/svg">
<rect x="0.5" y="0.5" width="81" height="83" rx="9.5" fill="black" stroke="black"/>
<path d="M10.9318 24.1818V23.0909H34.5227V24.1818H23.2727V58H22.1818V24.1818H10.9318Z" fill="#F2F2F2"/>
<path d="M52.9091 23.0909H62.3864V45.4545C62.3864 48.1136 61.75 50.4148 60.4773 52.358C59.2159 54.2898 57.4545 55.7841 55.1932 56.8409C52.9318 57.8864 50.3068 58.4091 47.3182 58.4091C44.3068 58.4091 41.6705 57.8864 39.4091 56.8409C37.1477 55.7841 35.3864 54.2898 34.125 52.358C32.875 50.4148 32.25 48.1136 32.25 45.4545V23.0909H41.7273V44.6364C41.7273 45.7159 41.9659 46.6818 42.4432 47.5341C42.9205 48.375 43.5795 49.0341 44.4205 49.5114C45.2727 49.9886 46.2386 50.2273 47.3182 50.2273C48.4091 50.2273 49.375 49.9886 50.2159 49.5114C51.0568 49.0341 51.7159 48.375 52.1932 47.5341C52.6705 46.6818 52.9091 45.7159 52.9091 44.6364V23.0909Z" fill="#F1F1F1"/>
</svg>
