<svg width="31" height="36" viewBox="0 0 31 36" fill="none" xmlns="http://www.w3.org/2000/svg">
<path d="M20.9091 0.0909081H30.3864V22.4545C30.3864 25.1136 29.75 27.4148 28.4773 29.358C27.2159 31.2898 25.4545 32.7841 23.1932 33.8409C20.9318 34.8864 18.3068 35.4091 15.3182 35.4091C12.3068 35.4091 9.67045 34.8864 7.40909 33.8409C5.14773 32.7841 3.38636 31.2898 2.125 29.358C0.875 27.4148 0.25 25.1136 0.25 22.4545V0.0909081H9.72727V21.6364C9.72727 22.7159 9.96591 23.6818 10.4432 24.5341C10.9205 25.375 11.5795 26.0341 12.4205 26.5114C13.2727 26.9886 14.2386 27.2273 15.3182 27.2273C16.4091 27.2273 17.375 26.9886 18.2159 26.5114C19.0568 26.0341 19.7159 25.375 20.1932 24.5341C20.6705 23.6818 20.9091 22.7159 20.9091 21.6364V0.0909081Z" fill="#F1F1F1"/>
</svg>
