<svg width="53" height="36" viewBox="0 0 53 36" fill="none" xmlns="http://www.w3.org/2000/svg">
<path d="M0.931818 1.18182V0.0909081H24.5227V1.18182H13.2727V35H12.1818V1.18182H0.931818Z" fill="black"/>
<path d="M42.9091 0.0909081H52.3864V22.4545C52.3864 25.1136 51.75 27.4148 50.4773 29.358C49.2159 31.2898 47.4545 32.7841 45.1932 33.8409C42.9318 34.8864 40.3068 35.4091 37.3182 35.4091C34.3068 35.4091 31.6705 34.8864 29.4091 33.8409C27.1477 32.7841 25.3864 31.2898 24.125 29.358C22.875 27.4148 22.25 25.1136 22.25 22.4545V0.0909081H31.7273V21.6364C31.7273 22.7159 31.9659 23.6818 32.4432 24.5341C32.9205 25.375 33.5795 26.0341 34.4205 26.5114C35.2727 26.9886 36.2386 27.2273 37.3182 27.2273C38.4091 27.2273 39.375 26.9886 40.2159 26.5114C41.0568 26.0341 41.7159 25.375 42.1932 24.5341C42.6705 23.6818 42.9091 22.7159 42.9091 21.6364V0.0909081Z" fill="black"/>
</svg>
